<?xml version="1.0" encoding="UTF-8"?>
<svg id="Calque_1" data-name="Calque 1" xmlns="http://www.w3.org/2000/svg" viewBox="0 0 839.93 375.05">
  <defs>
    <style>
      .cls-1 {
        font-family: NumberFiveSmooth, 'Number Five Smooth';
        font-size: 139.71px;
      }

      .cls-1, .cls-2, .cls-3, .cls-4 {
        stroke-miterlimit: 10;
      }

      .cls-1, .cls-3 {
        fill: #59332a;
        stroke: #59332a;
      }

      .cls-2 {
        fill: #f2b28d;
      }

      .cls-2, .cls-4 {
        stroke: #f2b28d;
      }

      .cls-4 {
        fill: none;
        stroke-width: 6px;
      }
    </style>
  </defs>
  <path id="Biscuit" class="cls-4" d="M165.16,358.89l-11.69-8.68c-.65-.48-1.47-.64-2.25-.45l-14.12,3.54c-13.81,3.46-28.26-2.52-35.57-14.73l-7.48-12.49c-.41-.69-1.12-1.16-1.91-1.28l-14.4-2.13c-14.08-2.09-25.14-13.14-27.23-27.23l-2.13-14.4c-.12-.8-.59-1.5-1.28-1.91l-12.49-7.48c-12.21-7.32-18.2-21.76-14.73-35.57l3.54-14.12c.2-.78.03-1.61-.45-2.25l-8.68-11.69c-8.48-11.43-8.48-27.07,0-38.5l8.68-11.69c.48-.65.64-1.47.45-2.25l-3.54-14.12c-3.46-13.81,2.52-28.26,14.73-35.57l12.49-7.48c.69-.41,1.16-1.12,1.28-1.91l2.13-14.4c2.09-14.08,13.14-25.14,27.23-27.23l14.4-2.13c.8-.12,1.5-.59,1.91-1.28l7.48-12.49c7.32-12.21,21.76-18.2,35.57-14.73l14.12,3.54c.78.2,1.61.03,2.25-.45l11.69-8.68c11.43-8.48,27.07-8.48,38.5,0l11.69,8.68c.65.48,1.47.64,2.25.45l14.12-3.54c13.81-3.46,28.26,2.52,35.57,14.73l7.48,12.49c.41.69,1.12,1.16,1.91,1.28l14.4,2.13c14.08,2.09,25.14,13.14,27.23,27.23l2.13,14.4c.12.8.59,1.5,1.28,1.91l12.49,7.48c12.21,7.32,18.2,21.76,14.73,35.57l-3.54,14.12c-.2.78-.03,1.61.45,2.25l8.68,11.69c8.48,11.43,8.48,27.07,0,38.5l-8.68,11.69c-.48.65-.64,1.47-.45,2.25l3.54,14.12c3.46,13.81-2.52,28.26-14.73,35.57l-12.49,7.48c-.69.41-1.16,1.12-1.28,1.91l-2.13,14.4c-2.09,14.08-13.14,25.14-27.23,27.23l-14.4,2.13c-.8.12-1.5.59-1.91,1.28l-7.48,12.49c-7.32,12.21-21.76,18.2-35.57,14.73l-14.12-3.54c-.78-.2-1.61-.03-2.25.45l-11.69,8.68c-11.43,8.48-27.07,8.48-38.5,0Z"/>
  <g id="Visage">
    <g>
      <path class="cls-2" d="M270.93,199.9c1.99-.51,6.18-1.44,6.04-3.51-.18-2.66-9.28-7.44-4.49-10.91l6.23-4.51c.96-.7,1.73-2.15,1.76-3.12.03-1.11-.62-2.53-1.57-3.32-1.53-1.27-3.06-2.57-4.76-3.59-4.91-2.95-9.47-6.09-13.16-10.44-.9-1.06-1.6-2.24-2.31-3.43-7.7-12.8-1.67-23.32-7.51-39.66-2.07-5.79-5.36-10.69-9.79-14.97-1.03-1-1.93-2.05-3.15-2.75.64,16.09-3.29,29.59-11.28,43.19-1.41,2.39-2.9,4.42-4.74,6.88,5.98-3.4,12.83-4.49,19.45-3.33-7.75.17-15.29,1.59-21.64,5.97-2.01,1.39-3.71,3.49-5.47,5.22-4.87,4.81-7.65,5.88-13.12,9.8.17,6.99-2.47,13.08-6.72,18.52-3.84,4.92-9.53,8.68-11.61,11.55-3.03,4.19-3.7,9.24-3.57,14.25.21,7.99,2.83,14.3,8.28,20.21-2.02-1.02-3.53-2.51-4.93-4.16-3.3-3.89-5.65-8.12-6.32-13.54-4.4,4.02-6.08,9.66-5.82,15.4.21,4.5,1.89,8.4,4.14,12.3,1.67,2.92,3.82,5.38,5.99,8.05,3.82,4.68,7.1,9.64,8.89,15.48,1.91,6.28,2.31,12.91.92,19.2.36-4.79-.87-8.72-2.95-12.83-3.01-5.96-6.96-11.01-12.36-15.21-.76-.6-1.53-1.39-2.38-1.96-4.74-3.15-9.28-6.28-13.56-9.96-1.32-1.14-2.23-2.55-3.25-3.83-4.03-5.04-6.15-10.67-6.69-17.01-.72-8.49,1.46-16.34,5.37-23.9,2.7-5.22,6.39-9.44,10.51-13.72,3.47-3.61,7.29-6.54,11.56-9.25l8.09-5.14,11.91-6.84c3.88-2.23,7.48-4.49,10.88-7.34,5-4.19,9.79-8.35,13.33-13.82,3.03-4.68,5.86-9.04,7.98-14.16,4.33-10.46,6.62-21.45,5.22-32.78-6.66-5.43-15.57-8.94-24.18-10.96,3.04-2.09,11.78.64,14.98,2.04,7.77,3.42,15.21,7.51,20.81,13.82,8.25,9.3,7.46,11.77,12.44,21.73,3.91,7.81,4.75,16.41,2.13,24.74-.36,1.14-.22,2.66.27,3.73,6.68,14.47,15.73,14.86,20.88,20.11,3.08,3.14,3.28,7.35,0,10.44-1.8,1.7-3.7,3.31-5.67,4.98-.74.63-.9,1.7-.17,2.46l3.97,4.15c1.38,1.44,1.63,3.25.62,5.08-.68,1.23-1.81,2.31-2.94,3.12,1.43,1.06,2.53,2.69,2.57,4.27.13,4.76-4.98,4.48-3.62,7.99l2.25,5.8c2.2,5.68,1.48,12.27-4.6,15.23-2.47,1.2-5.1,1.92-7.87,2.34-11.22,1.71-17.93-1.5-26.3-.46-3.73.46-7.22,1.83-9.8,4.36-2.69,2.64-5,5.32-7.02,8.44l-3.85,5.96-8.69,13.24-4.65,7.71c2.65-7.63,5.98-14.25,9.61-21.09l7.46-14.06,2.65-5.53c.55-1.15.37-2.44-.82-3.16l-6.48-3.98c-1.05-.64-1.95-1.31-2.96-2.01-5.5-3.86-10.95-7.74-14.84-13.46,7.33,6.84,12.91,9.6,22.2,13.92,3.68,1.71,7.54,3.08,11.65,3.85,8.17,1.54,16.24,2.71,24.55,3.43,4.89.42,14.45-1.08,16.67-6.2,2.38-5.47-2.12-12.08-4.34-17.69l4.05-2.19c1.22-.66,1.71-2.21,1.02-3.33-.39-.64-1.58-1.93-2.4-1.88l-7.81.51c-1.06.23-2.52.4-4.19.11-4.78-.84-7.37-4.75-7.92-5.62,7.96,2.68,13.87,1.77,16.92.99ZM259.77,147.95c2.41-7.75,1.31-16.06-2.45-23.37l1.2,16.41c.17,2.35.47,4.55,1.25,6.96ZM173.56,244.37c-.92-1.06-1.51-2.22-2.21-3.32-6.31-9.84-5.48-22.08,4.89-29.07-.65-10.92,2.85-17.09,9.61-25.31,1.26-1.53,2.19-3.2,3.74-4.28-2.15,3.63-4.48,6.46-6.44,10.24,6.42-4.74,15-13.68,14.16-22.82-1.65.81-2.99,1.8-4.52,2.67-7.21,4.1-14.37,8.01-20.59,13.43-4.81,4.19-9.24,8.37-12.3,13.92-5.19,9.42-7.29,17.33-5.24,27.97,1.08,5.58,4.12,10.01,8.03,14.1,6.25,6.54,11.14,7.98,17.67,13.59,1.22,1.05,2.23,2.14,3.55,3.02-1.03-3.09-2.77-5.43-4.8-7.76l-5.54-6.38Z"/>
      <path class="cls-2" d="M80.85,228.11c-4.33,2.35-8.98,3.42-14.03,3.79,3.11-1.25,5.98-2.1,8.71-3.82,6.22-3.92,11.81-8.19,16.41-13.91,3.46-4.31,6.53-8.62,8.56-13.75,2.58-6.51,3.86-13.11,4.38-20.07l1.03-13.89c.92-12.42,4.6-24.91,9.97-36.18,2.42-5.09,5.43-9.55,8.63-14.25,3.7-5.44,8.26-9.82,13.09-14.36,6.46-6.08,14.21-10.03,22.36-13.66,10.54-4.7,28.62-7.21,40.17-4.48-8.41-.91-25.74.66-33.37,4.15l-3.29,1.5c-7.65,3.5-15.08,7.1-21.29,12.65-4.97,4.44-9.66,8.65-13.44,14.11-3.15,4.56-6.11,8.85-8.59,13.82-5.96,11.98-9.56,24.62-10.27,37.97l-.86,16.06c-.29,5.44-1.67,10.41-3.35,15.58-1.79,5.52-4.53,10.34-8.08,14.99-4.43,5.81-10.08,10.15-16.74,13.76Z"/>
      <path class="cls-2" d="M182.95,295.15c-.65-4.09-2.55-7.69-5.23-11.26-2.61-3.48-6.56-5.64-10.79-7.09-4-1.36-7.95-2.4-12.09-3.39-3.71-.89-7.41-1.59-10.92-3.02l-3.38-1.38c-7.43-3.03-14.51-6.8-19.82-12.69-3.77-4.19-6.89-8.59-8.62-13.85-1.88-5.71-2.51-11.46-1.83-17.47.62-5.57,1.65-11.02,3.74-16.21l3.72-9.25c2.36-5.87,4.18-11.6,5.5-17.8,2.93-13.82,7.3-25.01,13.3-37.82,2.41-5.14,5.15-10.08,8.44-14.54-2.27,5.13-4.99,9.23-6.89,14.21-3.6,9.41-7.05,18.65-9.09,28.48l-2.93,14.11c-.97,4.65-2.43,8.99-4.14,13.43l-5.02,13.01c-1.4,3.62-1.83,7.54-2.24,11.41-.69,6.43-.1,12.42,2.08,18.51,1.9,5.3,5.32,9.64,9.47,13.69,4.69,4.58,10.69,7.66,16.9,10.04,3.37,1.29,7.03,1.96,10.09,3.36l1.7.78c5.09,2.34,17.57,3.99,23.83,13.5,2.26,3.43,4.47,6.9,4.25,11.25Z"/>
      <path class="cls-2" d="M157.04,256.99c-6.85-3.29-14.03-8.56-18.44-14.84-3.15-4.48-5.52-9.07-6.81-14.34-1.14-4.66-1.91-9.17-1.77-14.05.3-10.23,4.04-19.63,9.85-28.06,3.58-5.2,7.91-9.38,12.58-13.64,6.96-6.34,13.81-9.3,21.51-13.8l2.98-1.74c6.44-3.76,13.31-6.83,18.59-12.06l2.2-2.18c3.91-3.87,7.75-7.55,10.63-12.21,5.9-9.54,8.4-18.35,9.41-29.34,1.3,10.31-2.05,19.96-6.71,29-2.8,5.45-6.76,9.74-11.07,14.16-5,5.13-11.29,8.57-17.14,12.72l-2.32,1.65-5.26,2.93c-6.01,3.35-11.99,6.58-17.31,10.89-5.27,4.27-10.07,8.53-13.83,14.07-2.94,4.35-5.52,8.53-7.42,13.36-5.66,14.33-3.74,29.77,5.06,42.47,3.17,4.57,6.78,8.81,11.47,12,1.43.97,2.69,1.79,3.78,3Z"/>
      <path class="cls-2" d="M243,169.34c-6.83,3.31-13.74.49-19.43-3.84,2.77.49,5.15,1.3,7.8,1.54,4.49.4,12.31-1.3,12.97-6.22l3.38,4.07c-1.13,1.76-2.74,3.49-4.72,4.45Z"/>
    </g>
  </g>
  <g id="Point">
    <ellipse class="cls-2" cx="263.08" cy="299.96" rx="3.74" ry="3.63"/>
    <ellipse class="cls-2" cx="66.39" cy="108.07" rx="3.08" ry="2.99"/>
    <ellipse class="cls-2" cx="300.75" cy="108.07" rx="3.08" ry="2.99"/>
    <ellipse class="cls-2" cx="324.17" cy="210.55" rx="3.08" ry="2.99"/>
    <ellipse class="cls-2" cx="324.17" cy="160.26" rx="3.08" ry="2.99"/>
    <ellipse class="cls-2" cx="301.04" cy="264.74" rx="3.08" ry="2.99"/>
    <ellipse class="cls-2" cx="44.66" cy="160.26" rx="3.08" ry="2.99"/>
    <ellipse class="cls-2" cx="44.66" cy="213.54" rx="3.08" ry="2.99"/>
    <ellipse class="cls-2" cx="66.39" cy="264.74" rx="3.08" ry="2.99"/>
    <ellipse class="cls-2" cx="104.88" cy="299.96" rx="3.08" ry="2.99"/>
    <ellipse class="cls-2" cx="155.46" cy="320.94" rx="3.08" ry="2.99"/>
    <ellipse class="cls-2" cx="211.71" cy="320.94" rx="3.08" ry="2.99"/>
    <ellipse class="cls-2" cx="103.58" cy="72.26" rx="3.08" ry="2.99"/>
    <ellipse class="cls-2" cx="158.54" cy="49" rx="3.08" ry="2.99"/>
    <ellipse class="cls-2" cx="214.79" cy="50.29" rx="3.08" ry="2.99"/>
    <ellipse class="cls-2" cx="264.22" cy="72.26" rx="3.08" ry="2.99"/>
  </g>
  <g id="Texte">
    <text class="cls-1" transform="translate(403.56 286.7)"><tspan x="0" y="0">Célya</tspan></text>
    <g>
      <path class="cls-3" d="M410.67,155.08c5.97-.07,12.61-1.07,17.24-2.21,1.61,1.01,1.74,5.77-.27,5.77h-19.58c-2.08,0-3.56-1.21-3.55-3.35,0-11.67,0-23.34,0-35.01,0-2.62-.2-5.3-.94-7.51.54-.54,1.81-1.34,3.49-1.34,2.08,0,3.49,1.21,3.49,3.29.04,13.46.09,26.91.13,40.37Z"/>
      <path class="cls-3" d="M460.9,153.2c-1.68,4.16-6.3,6.3-12.07,6.3-9.79,0-15.96-6.24-15.96-17.84,0-11.13,5.7-18.11,16.23-18.11,7.24,0,12.54,3.35,12.54,9.79,0,6.71-5.83,10.19-15.09,10.19-2.41,0-4.76-.13-7.11-.4.6,9.25,5.03,12.34,10.93,12.34,4.83,0,8.58-2.08,9.99-5.7.87.34,1.48,1.21.54,3.42ZM439.37,140.66c1.41.13,2.95.27,4.49.27,5.9,0,11.27-1.54,11.27-8.45,0-5.03-3.22-6.37-6.3-6.37-5.7,0-9.39,5.1-9.46,14.55Z"/>
      <path class="cls-3" d="M466.26,151.46c0-2.28,1.21-4.49,4.9-3.89-.27,1.01-.27,1.88-.13,2.95.27,3.75,3.29,6.3,8.45,6.3,4.56,0,7.92-1.68,7.91-5.03,0-4.16-4.56-5.5-9.12-7.71-5.23-2.48-10.66-4.83-10.66-11.67,0-6.37,5.7-8.92,12.27-8.92,7.31,0,11.87,2.41,11.87,6.71,0,1.61-.74,3.08-2.88,3.29-.74.13-1.34.13-2.01-.07.13-.94.14-2.15-.2-3.02-.4-2.75-2.95-4.29-6.97-4.29-3.42,0-6.51,1.21-6.51,4.43,0,4.23,4.09,5.97,8.52,8.12,5.3,2.55,11.4,4.9,11.4,11.07,0,4.63-3.42,9.79-14.22,9.79-8.85,0-12.61-3.55-12.61-8.05Z"/>
      <path class="cls-3" d="M513.41,155.01c0-14.02,0-28.03,0-42.05,0-2.15,1.41-3.35,3.29-3.35,1.81,0,3.15.87,3.76,1.41-.8,3.22-.94,8.25-.94,10.66-.02,3.33-.04,6.66-.07,9.99,1.61-4.63,5.63-8.11,11.13-8.11,7.24,0,11.74,4.9,11.74,16.56,0,11.13-4.43,19.38-15.36,19.38-4.76,0-10.39-1.21-13.55-4.49ZM535.87,140.06c0-9.05-2.21-13.01-6.44-13.01-7.24,0-9.99,8.65-9.99,15.76,0,3.82,0,7.65,0,11.47,1.27,1.34,4.36,2.41,7.18,2.42,7.85-.2,9.25-8.65,9.25-16.63Z"/>
      <path class="cls-3" d="M549.15,114.84c0-2.21,1.74-3.96,3.96-3.96,2.15,0,3.89,1.74,3.89,3.96,0,2.15-1.74,3.89-3.89,3.89-2.21,0-3.95-1.74-3.96-3.89ZM557.33,158.03c-.54.54-1.75,1.41-3.49,1.41-1.95,0-3.42-1.27-3.42-3.35-.02-7.89-.04-15.78-.07-23.67,0-2.62-.13-5.36-.94-7.51.6-.47,1.75-1.34,3.49-1.34,2.01,0,3.42,1.21,3.42,3.29.02,7.91.04,15.83.07,23.74,0,2.62.13,5.3.94,7.44Z"/>
      <path class="cls-3" d="M563.83,151.46c0-2.28,1.21-4.49,4.9-3.89-.27,1.01-.27,1.88-.13,2.95.27,3.75,3.28,6.3,8.45,6.3,4.56,0,7.91-1.68,7.91-5.03,0-4.16-4.56-5.5-9.12-7.71-5.23-2.48-10.66-4.83-10.66-11.67,0-6.37,5.7-8.92,12.27-8.92,7.31,0,11.87,2.41,11.87,6.71,0,1.61-.74,3.08-2.88,3.29-.74.13-1.34.13-2.01-.07.14-.94.13-2.15-.2-3.02-.4-2.75-2.95-4.29-6.97-4.29-3.42,0-6.51,1.21-6.5,4.43,0,4.23,4.09,5.97,8.52,8.12,5.3,2.55,11.4,4.9,11.4,11.07,0,4.63-3.42,9.79-14.22,9.79-8.85,0-12.61-3.55-12.61-8.05Z"/>
      <path class="cls-3" d="M595.08,141.66c0-11.2,5.83-18.11,16.3-18.11,7.58,0,11.6,3.69,11.6,8.52,0,3.22-2.01,5.37-4.83,5.37-1.27,0-2.61-.4-3.42-1.41,1.48-.67,2.15-2.28,2.15-4.43,0-3.96-2.75-5.5-6.1-5.5-5.43,0-9.19,5.03-9.19,14.62,0,10.8,4.76,14.75,11,14.75,4.76,0,8.65-2.41,9.72-6.91.87.4,1.41,1.34.74,3.62-1.47,4.76-6.1,7.31-12.14,7.31-9.92,0-15.83-6.24-15.83-17.84Z"/>
      <path class="cls-3" d="M662.21,155.95c0,2.01-1.54,3.35-4.22,3.35-3.56,0-5.57-2.35-5.57-7.18v-.87c-1.88,5.3-5.83,8.32-11.2,8.32-7.18,0-10.53-3.76-10.53-14.02v-13.14c0-2.28-.2-5.3-.94-7.44.8-.67,1.88-1.41,3.49-1.41,2.01,0,3.49,1.21,3.49,3.35v17.84c0,8.25,1.54,11.6,6.3,11.6,4.22,0,8.79-4.49,8.79-15.89,0-10.39,0-12.74-1.01-15.56.54-.47,1.74-1.34,3.49-1.34,1.94,0,3.49,1.34,3.49,3.62.02,8.03.04,16.05.07,24.08,0,2.48.54,3.42,1.81,3.42.54,0,1.34-.13,1.81-.94.54.74.74,1.48.74,2.21Z"/>
      <path class="cls-3" d="M667.84,114.84c0-2.21,1.74-3.96,3.96-3.96,2.14,0,3.89,1.74,3.89,3.96,0,2.15-1.75,3.89-3.89,3.89-2.21,0-3.96-1.74-3.96-3.89ZM676.02,158.03c-.54.54-1.74,1.41-3.49,1.41-1.94,0-3.42-1.27-3.42-3.35-.02-7.89-.04-15.78-.07-23.67,0-2.62-.13-5.36-.94-7.51.6-.47,1.74-1.34,3.49-1.34,2.01,0,3.42,1.21,3.42,3.29l.07,23.74c0,2.62.13,5.3.94,7.44Z"/>
      <path class="cls-3" d="M700.77,124.3c-.02.54-.04,1.07-.07,1.61-.07,1.07-.8,1.68-1.68,1.68-2.21,0-4.43,0-6.64,0v2.41c-.02,7.02-.04,14.04-.07,21.06,0,2.35,1.07,3.62,3.22,3.62,1.14,0,2.61-.4,3.02-1.27.6.8.8,1.61.8,2.28,0,2.21-2.48,3.69-6.04,3.69-4.43,0-7.04-2.95-7.04-7.85v-23.94c-.34,0-.67,0-1.01,0-.87,0-3.15.07-4.02.2.02-.56.04-1.12.07-1.68.07-1.07.8-1.61,1.74-1.61h3.22v-5.63c0-2.08,1.48-3.29,3.55-3.29,1.74,0,2.89.87,3.42,1.34-.54,1.95-.74,4.22-.87,7.58h2.21c.67,0,5.5-.13,6.17-.2Z"/>
      <path class="cls-3" d="M704.79,151.46c0-2.28,1.21-4.49,4.9-3.89-.27,1.01-.27,1.88-.13,2.95.27,3.75,3.29,6.3,8.45,6.3,4.56,0,7.91-1.68,7.91-5.03,0-4.16-4.56-5.5-9.12-7.71-5.23-2.48-10.66-4.83-10.66-11.67,0-6.37,5.7-8.92,12.27-8.92,7.31,0,11.87,2.41,11.87,6.71,0,1.61-.74,3.08-2.88,3.29-.74.13-1.34.13-2.01-.07.13-.94.14-2.15-.2-3.02-.4-2.75-2.95-4.29-6.97-4.29-3.42,0-6.51,1.21-6.51,4.43,0,4.23,4.09,5.97,8.52,8.12,5.3,2.55,11.4,4.9,11.4,11.07,0,4.63-3.42,9.79-14.22,9.79-8.85,0-12.61-3.55-12.61-8.05Z"/>
      <path class="cls-3" d="M783.79,155.82c0,2.01-1.95,3.35-4.49,3.35-3.96,0-5.77-3.29-5.9-8.85-2.01,5.63-5.9,9.19-11.8,9.19-9.25,0-11.6-8.58-11.6-16.43,0-12.27,5.03-19.51,14.15-19.51,4.49,0,7.65,1.88,8.99,5.1v-7.78c0-3.35-.2-6.97-1.01-9.86.54-.54,1.74-1.41,3.49-1.41,2.01,0,3.55,1.21,3.55,3.35-.02,12.7-.04,25.39-.07,38.09,0,2.41.8,3.49,2.15,3.49.54,0,1.34-.13,1.81-1.01.54.8.74,1.61.74,2.28ZM773.06,138.04c0-5.37-1.34-11.07-7.78-11.07-5.77,0-8.79,5.5-8.79,15.89,0,6.84,1.01,13.01,6.77,13.01,6.3,0,9.79-8.32,9.79-17.84Z"/>
      <path class="cls-3" d="M815.64,153.2c-1.68,4.16-6.3,6.3-12.07,6.3-9.79,0-15.96-6.24-15.96-17.84,0-11.13,5.7-18.11,16.23-18.11,7.24,0,12.54,3.35,12.54,9.79,0,6.71-5.83,10.19-15.09,10.19-2.41,0-4.76-.13-7.11-.4.6,9.25,5.03,12.34,10.93,12.34,4.83,0,8.58-2.08,9.99-5.7.87.34,1.48,1.21.54,3.42ZM794.11,140.66c1.41.13,2.95.27,4.49.27,5.9,0,11.27-1.54,11.27-8.45,0-5.03-3.22-6.37-6.3-6.37-5.7,0-9.39,5.1-9.46,14.55Z"/>
    </g>
  </g>
</svg>