<?xml version="1.0" encoding="UTF-8"?>
<svg id="Logo_Orange" data-name="Logo Orange" xmlns="http://www.w3.org/2000/svg" viewBox="0 0 850 850">
  <defs>
    <style>
      .cls-1 {
        font-family: NumberFiveSmooth, 'Number Five Smooth';
        font-size: 150px;
      }

      .cls-1, .cls-2 {
        fill: #59332a;
      }

      .cls-3 {
        fill: #f2b28d;
      }

      .cls-4 {
        fill: #fdece2;
        stroke: #f2b28d;
        stroke-miterlimit: 10;
        stroke-width: 13px;
      }
    </style>
  </defs>
  <path id="Biscuit" class="cls-4" d="M351.11,819.08h0c-2.48-1.84-5.66-2.47-8.65-1.72h0c-53,13.29-108.45-9.68-136.53-56.55h0c-1.59-2.65-4.28-4.45-7.34-4.9h0c-54.05-8-96.49-50.44-104.5-104.5h0c-.45-3.06-2.25-5.75-4.9-7.34h0c-46.87-28.08-69.84-83.53-56.55-136.53h0c.75-3,.12-6.17-1.72-8.65h0c-32.56-43.88-32.56-103.9,0-147.78h0c1.84-2.48,2.47-5.66,1.72-8.65h0c-13.29-53,9.68-108.45,56.55-136.53h0c2.65-1.59,4.45-4.28,4.9-7.34h0c8-54.05,50.44-96.49,104.5-104.5h0c3.06-.45,5.75-2.25,7.34-4.9h0c28.08-46.87,83.53-69.84,136.53-56.55h0c3,.75,6.17.12,8.65-1.72h0c43.88-32.56,103.9-32.56,147.78,0h0c2.48,1.84,5.66,2.47,8.65,1.72h0c53-13.29,108.45,9.68,136.53,56.55h0c1.59,2.65,4.28,4.45,7.34,4.9h0c54.05,8,96.49,50.44,104.5,104.5h0c.45,3.06,2.25,5.75,4.9,7.34h0c46.87,28.08,69.84,83.53,56.55,136.53h0c-.75,3-.12,6.17,1.72,8.65h0c32.56,43.88,32.56,103.9,0,147.78h0c-1.84,2.48-2.47,5.66-1.72,8.65h0c13.29,53-9.68,108.45-56.55,136.53h0c-2.65,1.59-4.45,4.28-4.9,7.34h0c-8,54.05-50.44,96.49-104.5,104.5h0c-3.06.45-5.75,2.25-7.34,4.9h0c-28.08,46.87-83.53,69.84-136.53,56.55h0c-3-.75-6.17-.12-8.65,1.72h0c-43.88,32.56-103.9,32.56-147.78,0Z"/>
  <g id="Visage">
    <g>
      <path class="cls-2" d="M583.11,450.04c3.58-.92,11.1-2.58,10.85-6.3-.32-4.78-16.69-13.37-8.07-19.6l11.2-8.11c1.73-1.25,3.12-3.87,3.17-5.6.06-1.99-1.12-4.55-2.82-5.96-2.76-2.28-5.49-4.62-8.56-6.46-8.82-5.3-17.02-10.94-23.66-18.76-1.61-1.9-2.87-4.03-4.16-6.17-13.84-23.02-3-41.92-13.5-71.28-3.73-10.41-9.63-19.21-17.59-26.92-1.85-1.79-3.47-3.68-5.66-4.94,1.16,28.92-5.91,53.19-20.27,77.63-2.54,4.29-5.22,7.94-8.53,12.37,10.74-6.12,23.07-8.07,34.96-5.98-13.92.31-27.48,2.87-38.9,10.73-3.62,2.49-6.68,6.28-9.83,9.39-8.76,8.65-13.75,10.57-23.58,17.62.3,12.56-4.45,23.51-12.08,33.29-6.9,8.84-17.13,15.6-20.86,20.77-5.44,7.53-6.66,16.6-6.42,25.61.37,14.36,5.09,25.71,14.88,36.32-3.63-1.84-6.34-4.52-8.85-7.48-5.93-6.99-10.15-14.6-11.36-24.34-7.91,7.22-10.93,17.36-10.45,27.69.37,8.08,3.4,15.09,7.43,22.11,3.01,5.24,6.87,9.67,10.77,14.46,6.86,8.42,12.77,17.32,15.97,27.83,3.44,11.28,4.15,23.2,1.65,34.51.65-8.61-1.57-15.68-5.29-23.06-5.41-10.7-12.51-19.79-22.21-27.34-1.37-1.07-2.74-2.51-4.27-3.52-8.52-5.66-16.69-11.28-24.37-17.91-2.37-2.05-4-4.58-5.84-6.88-7.24-9.07-11.06-19.18-12.03-30.58-1.29-15.25,2.63-29.37,9.66-42.96,4.85-9.39,11.49-16.96,18.89-24.66,6.23-6.49,13.1-11.76,20.77-16.63l14.54-9.25,21.4-12.3c6.98-4.01,13.44-8.08,19.55-13.19,8.99-7.52,17.6-15.01,23.96-24.84,5.45-8.41,10.54-16.25,14.35-25.45,7.78-18.79,11.9-38.55,9.38-58.91-11.98-9.76-27.99-16.07-43.45-19.7,5.46-3.75,21.18,1.14,26.93,3.67,13.97,6.15,27.33,13.49,37.41,24.85,14.83,16.72,13.41,21.16,22.37,39.07,7.03,14.04,8.53,29.49,3.82,44.47-.65,2.05-.39,4.79.49,6.7,12,26.01,28.28,26.71,37.54,36.15,5.53,5.64,5.9,13.21-.01,18.77-3.24,3.05-6.65,5.95-10.19,8.96-1.32,1.12-1.63,3.05-.31,4.42l7.13,7.46c2.48,2.59,2.93,5.84,1.12,9.14-1.21,2.2-3.25,4.15-5.28,5.6,2.57,1.9,4.55,4.83,4.63,7.67.24,8.55-8.94,8.06-6.5,14.37l4.04,10.42c3.96,10.21,2.67,22.06-8.26,27.38-4.44,2.16-9.17,3.45-14.15,4.21-20.16,3.08-32.23-2.69-47.27-.82-6.7.83-12.98,3.28-17.62,7.83-4.84,4.75-8.98,9.56-12.61,15.17l-6.93,10.71-15.62,23.8-8.36,13.85c4.76-13.72,10.75-25.62,17.27-37.91l13.41-25.27,4.76-9.93c.99-2.06.66-4.38-1.47-5.69l-11.64-7.15c-1.88-1.16-3.51-2.35-5.32-3.62-9.88-6.95-19.68-13.91-26.68-24.19,13.18,12.3,23.21,17.25,39.9,25.02,6.62,3.08,13.54,5.53,20.94,6.92,14.69,2.77,29.2,4.88,44.13,6.16,8.8.76,25.97-1.95,29.96-11.14,4.28-9.84-3.8-21.72-7.8-31.8l7.28-3.94c2.19-1.18,3.07-3.97,1.84-5.99-.7-1.15-2.84-3.48-4.32-3.38l-14.04.92c-1.91.42-4.53.72-7.53.19-8.59-1.51-13.24-8.53-14.23-10.09,14.31,4.82,24.94,3.18,30.41,1.78ZM563.05,356.68c4.33-13.92,2.36-28.87-4.4-42.01l2.16,29.5c.31,4.22.85,8.18,2.24,12.51ZM408.09,529.99c-1.65-1.9-2.72-4-3.98-5.96-11.35-17.68-9.86-39.69,8.78-52.24-1.16-19.62,5.12-30.71,17.27-45.49,2.26-2.75,3.93-5.76,6.73-7.69-3.87,6.53-8.05,11.6-11.58,18.41,11.54-8.51,26.97-24.59,25.45-41.02-2.96,1.45-5.38,3.24-8.12,4.79-12.97,7.37-25.82,14.39-37.01,24.14-8.65,7.53-16.61,15.04-22.11,25.01-9.34,16.93-13.11,31.15-9.42,50.28,1.93,10.04,7.41,18,14.43,25.34,11.23,11.76,20.03,14.34,31.76,24.42,2.19,1.88,4.01,3.86,6.38,5.42-1.85-5.55-4.98-9.75-8.62-13.95l-9.96-11.47Z"/>
      <path class="cls-2" d="M241.45,500.74c-7.78,4.22-16.15,6.14-25.22,6.82,5.58-2.24,10.74-3.77,15.65-6.87,11.18-7.05,21.23-14.72,29.49-25.01,6.22-7.76,11.74-15.5,15.39-24.72,4.63-11.7,6.94-23.56,7.87-36.08l1.85-24.96c1.66-22.33,8.28-44.77,17.91-65.04,4.35-9.15,9.77-17.17,15.51-25.61,6.65-9.77,14.85-17.65,23.53-25.82,11.61-10.92,25.54-18.02,40.19-24.56,18.94-8.44,51.44-12.96,72.2-8.06-15.12-1.64-46.26,1.19-59.98,7.46l-5.91,2.7c-13.76,6.28-27.1,12.76-38.26,22.73-8.93,7.98-17.37,15.55-24.15,25.35-5.67,8.2-10.99,15.91-15.43,24.85-10.71,21.54-17.19,44.25-18.47,68.25l-1.54,28.87c-.52,9.79-3.01,18.72-6.02,28.01-3.21,9.91-8.14,18.59-14.51,26.94-7.97,10.44-18.12,18.24-30.1,24.73Z"/>
      <path class="cls-2" d="M424.97,621.24c-1.16-7.35-4.59-13.83-9.4-20.23-4.7-6.25-11.79-10.14-19.4-12.74-7.19-2.45-14.28-4.31-21.74-6.1-6.67-1.6-13.33-2.86-19.63-5.43l-6.07-2.48c-13.36-5.45-26.07-12.22-35.62-22.81-6.78-7.52-12.39-15.43-15.5-24.89-3.38-10.27-4.5-20.59-3.3-31.41,1.12-10.01,2.97-19.8,6.72-29.13l6.69-16.63c4.25-10.55,7.52-20.85,9.88-31.99,5.26-24.84,13.12-44.96,23.91-67.98,4.33-9.24,9.26-18.11,15.16-26.14-4.09,9.23-8.96,16.59-12.39,25.54-6.47,16.91-12.67,33.53-16.34,51.19l-5.27,25.36c-1.74,8.36-4.37,16.16-7.45,24.14l-9.02,23.38c-2.51,6.51-3.29,13.56-4.03,20.5-1.23,11.55-.18,22.32,3.75,33.27,3.41,9.52,9.56,17.33,17.01,24.6,8.43,8.23,19.22,13.77,30.37,18.05,6.05,2.32,12.64,3.53,18.13,6.04l3.05,1.4c9.15,4.2,31.59,7.17,42.84,24.26,4.06,6.17,8.03,12.41,7.63,20.23Z"/>
      <path class="cls-2" d="M378.4,552.66c-12.32-5.92-25.21-15.38-33.15-26.67-5.66-8.06-9.92-16.3-12.24-25.78-2.06-8.38-3.44-16.48-3.18-25.26.55-18.4,7.26-35.28,17.7-50.44,6.43-9.34,14.21-16.85,22.62-24.52,12.51-11.4,24.82-16.72,38.66-24.8l5.35-3.12c11.58-6.76,23.92-12.28,33.42-21.68l3.96-3.92c7.03-6.96,13.93-13.57,19.11-21.94,10.61-17.15,15.11-32.98,16.91-52.73,2.34,18.53-3.68,35.87-12.05,52.13-5.04,9.79-12.14,17.5-19.89,25.46-8.99,9.23-20.28,15.4-30.81,22.86l-4.17,2.96-9.45,5.27c-10.8,6.02-21.55,11.83-31.11,19.58-9.47,7.68-18.11,15.32-24.85,25.29-5.29,7.82-9.91,15.33-13.34,24.01-10.17,25.75-6.72,53.52,9.09,76.34,5.7,8.22,12.18,15.84,20.62,21.57,2.56,1.74,4.83,3.21,6.8,5.39Z"/>
      <path class="cls-2" d="M532.9,395.12c-12.28,5.94-24.69.89-34.92-6.9,4.98.89,9.26,2.34,14.01,2.77,8.08.72,22.12-2.34,23.32-11.19l6.07,7.32c-2.04,3.16-4.93,6.28-8.49,8Z"/>
    </g>
  </g>
  <g id="Point">
    <circle class="cls-3" cx="629.99" cy="733.33" r="9.74"/>
    <circle class="cls-3" cx="117.47" cy="218.82" r="8.02"/>
    <circle class="cls-3" cx="728.13" cy="218.82" r="8.02"/>
    <circle class="cls-3" cx="789.17" cy="493.6" r="8.02"/>
    <circle class="cls-3" cx="789.17" cy="358.75" r="8.02"/>
    <circle class="cls-3" cx="728.88" cy="638.9" r="8.02"/>
    <circle class="cls-3" cx="60.83" cy="358.75" r="8.02"/>
    <circle class="cls-3" cx="60.83" cy="501.61" r="8.02"/>
    <circle class="cls-3" cx="117.47" cy="638.9" r="8.02"/>
    <circle class="cls-3" cx="217.74" cy="733.33" r="8.02"/>
    <circle class="cls-3" cx="349.55" cy="789.59" r="8.02"/>
    <circle class="cls-3" cx="496.13" cy="789.59" r="8.02"/>
    <circle class="cls-3" cx="214.37" cy="122.79" r="8.02"/>
    <circle class="cls-3" cx="357.57" cy="60.41" r="8.02"/>
    <circle class="cls-3" cx="504.14" cy="63.88" r="8.02"/>
    <circle class="cls-3" cx="632.94" cy="122.79" r="8.02"/>
  </g>
  <g id="Texte">
    <text class="cls-1" transform="translate(280.13 731.26)"><tspan x="0" y="0">Célya</tspan></text>
    <g>
      <path class="cls-2" d="M207.59,239.19c5.97-3.6,12.22-8.27,16.45-11.86,2.17.08,4.65,4.55,2.61,5.63-6.65,3.5-13.23,7.19-19.73,11.07-2.07,1.23-4.2,1.02-5.41-.94-6.52-10.7-13.04-21.4-19.56-32.1-1.46-2.4-3.18-4.73-5.23-6.25.29-.85,1.25-2.46,3.12-3.58,2.32-1.39,4.55-1.19,5.68.73,7.36,12.43,14.72,24.87,22.08,37.3Z"/>
      <path class="cls-2" d="M258.86,211.37c-.08,4.87-4.02,9.02-10,11.74-10.11,4.61-19.41,1.94-25.13-9.15-5.47-10.6-2.55-20.63,9.44-26.11,8.23-3.74,15.7-2.89,18.32,3.51,2.73,6.68-2.24,12.7-12.19,17.29-2.6,1.21-5.18,2.27-7.83,3.24,5.02,8.61,11.03,9.35,17.22,6.57,5.06-2.28,8.16-6,8.18-10.23,1.08-.06,2.08.54,1.99,3.15ZM230.24,209.52c1.58-.61,3.31-1.28,4.98-2.07,6.37-3.01,11.57-7.06,8.64-13.88-2.14-4.96-6.37-4.69-9.85-3.1-6.45,2.94-8.17,9.9-3.77,19.04Z"/>
      <path class="cls-2" d="M263.9,207.29c-.91-2.27-.48-5.02,3.78-5.97.1,1.12.43,1.99.99,3.01,1.75,3.65,5.94,4.94,11.47,2.95,4.88-1.76,7.93-4.66,6.79-8.08-1.41-4.24-6.9-3.92-12.76-4.31-6.69-.42-13.63-.38-16.35-7.19-2.55-6.35,3.02-11.52,10.68-14.26,8.52-3.04,14.68-2.25,16.07,2.13.53,1.65.17,3.42-2.21,4.44-.8.42-1.49.65-2.32.7-.17-1.01-.58-2.24-1.27-2.99-1.4-2.64-4.9-3.22-9.56-1.55-3.96,1.42-7.05,3.98-5.82,7.21,1.61,4.24,6.89,4.24,12.62,4.66,6.87.46,14.48.68,16.47,7,1.5,4.78-.55,11.1-12.02,15.19-9.39,3.42-14.75,1.55-16.57-2.94Z"/>
      <path class="cls-2" d="M316.46,194.02c-3.79-14.56-7.59-29.13-11.38-43.69-.58-2.23.82-3.94,3.12-4.52,2.23-.56,4.1-.05,4.97.34-.18,3.6.94,8.88,1.56,11.4.82,3.48,1.64,6.96,2.46,10.44.69-5.28,4.64-10.09,11.24-11.49,8.71-1.84,15.07,2.41,17.24,14.74,2.07,11.81-1.29,21.27-13.2,23.88-5.22,1.15-11.65,1.4-16.01-1.1ZM338.21,172.58c-1.87-9.54-5.33-13.2-10.36-12.12-8.65,1.88-9.67,11.76-7.83,19.16.97,3.99,1.94,7.98,2.91,11.96,1.75,1.05,5.41,1.36,8.52.67,8.58-2.1,8.42-11.24,6.77-19.67Z"/>
      <path class="cls-2" d="M349.25,143.1c-.38-2.34,1.48-4.55,4.24-4.96,2.67-.4,5.1,1.15,5.43,3.5.32,2.28-1.56,4.43-4.17,4.83-2.7.41-5.12-1.09-5.5-3.37ZM365.74,187.51c-.52.65-1.73,1.77-3.65,2.05-2.15.32-4-.77-4.35-2.98-1.35-8.36-2.7-16.73-4.05-25.09-.44-2.77-1.06-5.67-2.39-7.79.65-.61,1.87-1.76,3.98-2.08,2.43-.37,4.32.68,4.63,2.89,1.22,8.41,2.45,16.82,3.67,25.23.39,2.78.95,5.61,2.17,7.77Z"/>
      <path class="cls-2" d="M372.12,179.56c-.3-2.43.8-4.97,5.1-4.79-.19,1.11-.09,2.04.19,3.17.76,3.98,4.42,6.31,10.2,5.8,5.1-.44,8.75-2.47,8.52-6.07-.29-4.46-5.61-5.55-11.1-7.44-6.28-2.12-12.91-3.87-13.79-11.16-.84-6.79,5.76-10.35,13.77-11.03,8.9-.76,14.59,1.59,14.82,6.18.09,1.73-.7,3.35-3.24,3.72-.87.2-1.58.24-2.4.08.09-1.02,0-2.31-.46-3.22-.68-2.91-3.87-4.37-8.74-3.95-4.13.35-7.72,2.04-7.36,5.47.48,4.51,5.5,5.86,10.88,7.75,6.44,2.21,13.67,4.36,13.98,10.98.23,5-3.33,10.59-15.31,11.6-9.83.89-14.46-2.3-15.07-7.1Z"/>
      <path class="cls-2" d="M407.22,166.2c-.54-11.99,6.27-19.8,19.09-19.78,9.26.05,14.02,4.24,13.82,9.41-.13,3.46-2.57,5.67-5.89,5.6-1.5-.03-3.07-.49-4.01-1.58,1.75-.7,2.58-2.41,2.63-4.71.09-4.25-3.22-5.97-7.28-5.98-6.61-.01-11.04,5.52-10.78,15.8.3,11.59,5.75,15.69,12.76,15.74,5.36.03,9.81-2.42,11.21-7.2.99.46,1.56,1.49.71,3.91-1.87,5.05-7.1,7.61-13.82,7.59-11.02-.01-17.86-6.35-18.42-18.82Z"/>
      <path class="cls-2" d="M483.3,185.23c-.3,2.14-2.21,3.32-5.18,2.94-3.94-.5-5.89-3.24-5.32-8.4.03-.31.07-.62.1-.93-2.78,5.41-7.49,8.15-13.45,7.66-7.97-.64-11.48-4.81-10.91-15.83.26-4.7.51-9.39.77-14.09.13-2.44.07-5.69-.7-8.04,1.01-.67,2.36-1.39,4.32-1.27,2.45.15,4.15,1.57,3.99,3.87-.45,6.37-.9,12.74-1.35,19.11-.61,8.84.87,12.53,6.2,12.98,4.72.4,10.34-3.83,11.73-15.99,1.23-11.09,1.51-13.6.62-16.74.7-.43,2.27-1.2,4.38-.96,2.36.28,4.05,1.94,3.74,4.37-1.06,8.55-2.11,17.1-3.17,25.66-.33,2.64.14,3.72,1.57,3.91.6.08,1.52.06,2.17-.73.5.87.61,1.68.5,2.47Z"/>
      <path class="cls-2" d="M496.29,142.52c.36-2.35,2.81-3.87,5.56-3.42,2.67.44,4.51,2.66,4.09,5-.4,2.27-2.85,3.74-5.46,3.31-2.69-.44-4.54-2.62-4.19-4.89ZM498.32,189.85c-.7.46-2.19,1.15-4.11.83-2.15-.36-3.57-1.96-3.22-4.17,1.29-8.37,2.58-16.75,3.86-25.12.43-2.77.74-5.72.12-8.14.8-.39,2.32-1.1,4.43-.75,2.43.4,3.9,1.97,3.52,4.17-1.42,8.38-2.85,16.75-4.27,25.13-.48,2.77-.82,5.63-.32,8.06Z"/>
      <path class="cls-2" d="M534.19,160.38c-.16.55-.33,1.11-.49,1.66-.35,1.1-1.38,1.52-2.41,1.27-2.61-.63-5.23-1.23-7.85-1.81-.19.84-.37,1.69-.56,2.53-1.65,7.35-3.3,14.71-4.95,22.06-.54,2.46.35,4.06,2.73,4.6,1.26.29,2.99.25,3.66-.55.47,1,.49,1.89.32,2.59-.56,2.31-3.64,3.19-7.53,2.32-4.84-1.08-7.09-4.75-6.05-9.91,1.71-8.4,3.42-16.79,5.14-25.19-.4-.08-.8-.16-1.2-.24-1.04-.21-3.76-.67-4.83-.72.14-.58.28-1.17.42-1.75.3-1.12,1.29-1.51,2.41-1.3,1.29.25,2.57.51,3.85.77.4-1.98.81-3.95,1.21-5.93.44-2.19,2.5-3.09,5.04-2.55,2.13.45,3.31,1.68,3.86,2.32-1.11,1.89-1.88,4.23-2.81,7.71.88.19,1.76.39,2.64.59.8.17,6.58,1.38,7.4,1.52Z"/>
      <path class="cls-2" d="M531.74,189.83c.6-2.37,2.55-4.34,6.52-2.61-.58.96-.82,1.87-.97,3.02-.74,3.98,1.85,7.49,7.46,9.13,4.96,1.45,9.13.9,10.22-2.53,1.35-4.26-3.26-7.23-7.73-10.99-5.13-4.27-10.71-8.32-8.88-15.43,1.69-6.63,9.16-7.55,16.94-5.25,8.64,2.55,13.16,6.83,11.7,11.19-.54,1.64-1.88,2.86-4.4,2.28-.89-.13-1.58-.35-2.29-.8.46-.91.85-2.15.74-3.16.42-2.96-2.06-5.49-6.78-6.88-4.02-1.18-7.99-.93-8.9,2.41-1.2,4.38,3.03,7.47,7.4,11.19,5.25,4.41,11.28,9.07,9.16,15.36-1.6,4.74-7,8.63-18.64,5.2-9.56-2.76-12.73-7.41-11.55-12.11Z"/>
      <path class="cls-2" d="M615.16,225.79c-.97,1.93-3.6,2.23-6.23.96-4.07-1.96-4.47-6.01-2.11-11.51-4.69,4.5-10.27,6.12-16.44,3.5-9.65-4.06-8.86-13.52-5.83-21.41,4.7-12.29,13.35-17.38,23.82-12.87,5.13,2.22,7.87,5.71,7.91,9.53,1.17-2.53,2.33-5.06,3.5-7.58,1.51-3.27,2.91-6.9,3.27-10.15.86-.24,2.67-.44,4.7.51,2.35,1.1,3.57,3.14,2.57,5.21-5.94,12.27-11.88,24.54-17.81,36.82-1.12,2.34-.78,3.78.61,4.46.56.27,1.46.56,2.36-.04.18,1.05,0,1.93-.32,2.57ZM611.99,203.11c2.42-5.21,3.51-11.51-3.78-14.72-6.55-2.85-12.23,1.25-16.42,11.59-2.77,6.81-4.18,13.35,1.89,15.94,6.6,2.85,13.99-3.53,18.31-12.81Z"/>
      <path class="cls-2" d="M649.03,241.3c-4.02,2.78-9.78,1.98-15.56-1.29-9.78-5.52-13.07-14.61-7.47-25.76,5.36-10.65,15.16-14.21,26.76-7.67,7.95,4.51,11.77,11.13,8.14,17-3.8,6.14-11.72,5.57-21.38.17-2.53-1.41-4.93-2.88-7.27-4.46-4.01,9.13-1.05,14.44,4.91,17.84,4.88,2.79,9.78,3.15,13.23.7.7.85.81,2.02-1.37,3.47ZM633.44,216.9c1.43.92,3,1.93,4.63,2.83,6.23,3.41,12.65,5.29,16.44-1.09,2.75-4.65,0-7.94-3.37-9.84-6.24-3.52-12.88-.83-17.69,8.11Z"/>
    </g>
  </g>
</svg>