<?xml version="1.0" encoding="UTF-8"?>
<svg id="Camion" xmlns="http://www.w3.org/2000/svg" viewBox="34.14 53.31 138.78 66.86">
  <defs>
    <style>
      .cls-1 {
        fill: none;
        stroke: #abe0a4;
        stroke-linecap: round;
        stroke-miterlimit: 10;
        stroke-width: 2px;
      }
    </style>
  </defs>
  <path class="cls-1" d="M56.56,109.88h13.54c0,4.58,3.71,8.29,8.29,8.29s8.29-3.71,8.29-8.29h47.51c1.63,0,2.96-1.51,2.96-3.37v-47.83c0-1.86-1.32-3.37-2.96-3.37H56.56"/>
  <path class="cls-1" d="M137.33,109.88c0,4.58,3.71,8.29,8.29,8.29s8.29-3.71,8.29-8.29h12.98c2.22,0,4.03-1.8,4.03-4.03v-12.43c0-1.28-.61-2.49-1.65-3.25l-7.19-5.25c-.71-.52-1.24-1.26-1.49-2.11l-3.73-12.63c-.51-1.71-2.08-2.89-3.86-2.89h-15.86"/>
  <path class="cls-1" d="M160.6,82.81h-11.03c-2.18,0-3.95-1.77-3.95-3.95v-11.57"/>
  <path class="cls-1" d="M137.33,109.88c0-4.58,3.71-8.29,8.29-8.29s8.29,3.71,8.29,8.29"/>
  <path class="cls-1" d="M70.1,109.88c0-4.58,3.71-8.29,8.29-8.29s8.29,3.71,8.29,8.29"/>
  <line class="cls-1" x1="70.1" y1="68.24" x2="44.53" y2="68.24"/>
  <line class="cls-1" x1="70.1" y1="81.49" x2="36.14" y2="81.49"/>
  <line class="cls-1" x1="57.85" y1="94.74" x2="40.87" y2="94.74"/>
</svg>