<?xml version="1.0" encoding="UTF-8"?>
<svg id="Panier" xmlns="http://www.w3.org/2000/svg" viewBox="0 0 207.07 185.49">
  <defs>
    <style>
      .cls-1 {
        stroke-linecap: round;
        stroke-linejoin: round;
      }

      .cls-1, .cls-2 {
        fill: none;
        stroke: #fff;
        stroke-width: 2px;
      }

      .cls-3 {
        fill: #fff;
      }

      .cls-2 {
        stroke-miterlimit: 10;
      }
    </style>
  </defs>
  <path class="cls-2" d="M148.71,82.38l-6.61,46.9c-.21,1.48-1.48,2.59-2.98,2.59h-70.78c-1.49,0-2.75-1.09-2.97-2.56l-7.02-46.9"/>
  <path class="cls-3" d="M143.05,51.91h-6.81v-6.81c0-1.14-.92-2.06-2.06-2.06h-.91c-1.14,0-2.06.92-2.06,2.06v6.81h-6.81c-1.14,0-2.06.92-2.06,2.06v.91c0,1.14.92,2.06,2.06,2.06h6.81v6.81c0,1.14.92,2.06,2.06,2.06h.91c1.14,0,2.06-.92,2.06-2.06v-6.81h6.81c1.14,0,2.06-.92,2.06-2.06v-.91c0-1.14-.92-2.06-2.06-2.06Z"/>
  <g>
    <path class="cls-1" d="M151.7,76.16h-44.41c-.24,1.99-1.82,3.52-3.76,3.52s-3.51-1.54-3.76-3.52h-44.41c-1.5,0-2.71,1.29-2.71,2.88v1.28c0,1.59,1.21,2.88,2.71,2.88h96.33c1.5,0,2.71-1.29,2.71-2.88v-1.28c0-1.59-1.21-2.88-2.71-2.88Z"/>
    <path class="cls-1" d="M107.29,76.16c.02-.17.05-.34.05-.52v-23.76c0-2.24-1.7-4.05-3.81-4.05s-3.81,1.81-3.81,4.05v23.76"/>
    <path class="cls-1" d="M103.54,79.69c1.93,0,3.51-1.54,3.76-3.52"/>
  </g>
  <rect class="cls-1" x="65.88" y="103.51" width="29.96" height="6.63" rx="2.71" ry="2.71" transform="translate(-25.96 187.68) rotate(-90)"/>
  <rect class="cls-1" x="81" y="103.51" width="29.96" height="6.63" rx="2.71" ry="2.71" transform="translate(-10.84 202.8) rotate(-90)"/>
  <rect class="cls-1" x="96.11" y="103.51" width="29.96" height="6.63" rx="2.71" ry="2.71" transform="translate(4.27 217.91) rotate(-90)"/>
  <rect class="cls-1" x="111.23" y="103.51" width="29.96" height="6.63" rx="2.71" ry="2.71" transform="translate(19.39 233.03) rotate(-90)"/>
</svg>