<?xml version="1.0" encoding="UTF-8"?>
<svg id="Linkedin" xmlns="http://www.w3.org/2000/svg" viewBox="0 0 207.07 185.49">
  <defs>
    <style>
      .cls-1 {
        fill: none;
        stroke: #fff;
        stroke-linecap: round;
        stroke-linejoin: round;
        stroke-width: 2px;
      }
    </style>
  </defs>
  <rect class="cls-1" x="69.52" y="64.88" width="15.15" height="47.54"/>
  <circle class="cls-1" cx="77.09" cy="51.97" r="8.93"/>
  <path class="cls-1" d="M117.6,80.46c-1.19-.25-2.36-.2-3.49.12-3.1.89-3.75,4.32-3.75,7.15v24.69s-17.29,0-17.29,0v-47.41s17.26,0,17.26,0l.04,2.17c2.44-1.81,5.16-2.95,8.15-3.33s6.21-.1,9.14.88c3.72,1.25,6.77,3.77,8.67,7.18,1.71,3.08,2.29,6.16,2.56,9.68v30.82s-17.77,0-17.77,0v-25.14c-.05-1.03-.11-1.97-.33-2.95-.4-1.77-1.22-3.44-3.2-3.86Z"/>
</svg>