<?xml version="1.0" encoding="UTF-8"?>
<svg id="Facebook" xmlns="http://www.w3.org/2000/svg" viewBox="0 0 207.07 185.49">
  <defs>
    <style>
      .cls-1 {
        fill: none;
        stroke: #fff;
        stroke-linecap: round;
        stroke-linejoin: round;
        stroke-width: 2px;
      }
    </style>
  </defs>
  <path class="cls-1" d="M134.4,27.09v17.65c-.45,1.17-1.22,1.88-2.57,1.88h-8.6c-2.79,0-5.82.61-6.55,3.68-.28,1.02-.35,2.06-.35,3.16v9.84s15.12,0,15.12,0c1.17,0,2.19.8,2.2,2.02l.02,16.57c-.09,1.07-.81,2.04-1.95,2.04l-15.4.06.02,41.01c0,1.29-.34,2.06-1.26,2.79h-18.63c-.88-.66-1.32-1.36-1.31-2.59v-41.21s-12.83-.02-12.83-.02c-1.29,0-2.08-.76-2.38-2.09v-16.38c.24-1.35,1.01-2.21,2.34-2.21h12.85s.05-11.93.05-11.93c.02-3.63.63-7.02,1.96-10.39,2.24-5.44,6.29-9.88,11.9-11.95,0,0,8.27-4.86,25.37-1.94Z"/>
</svg>