<?xml version="1.0" encoding="UTF-8"?>
<svg id="Vegan" xmlns="http://www.w3.org/2000/svg" viewBox="55.25 65.16 88.82 57.35">
  <defs>
    <style>
      .cls-1 {
        fill: none;
        stroke: #f3b38d;
        stroke-linecap: round;
        stroke-linejoin: round;
        stroke-width: 2px;
      }
    </style>
  </defs>
  <path class="cls-1" d="M107.78,107.5c4.2-7.16,12.23-13.24,19.81-16.52-7.58,3.28-15.61,9.36-19.81,16.52-.23,1.68-.28,2.71-.28,2.71,33.16,10.3,34.57-30.3,34.57-30.3-27.35-6.88-33.14,18.97-34.29,27.59Z"/>
  <path class="cls-1" d="M66.05,67.45c-8.8,42.2,40.53,42.6,40.53,42.6.31-1.18.57-2.31.79-3.43-1.36-7.61-7.31-13.68-13.15-18.89-3.51-3.13-7.32-6.29-11.94-7.15,4.62.86,8.43,4.02,11.94,7.15,5.83,5.21,11.79,11.29,13.15,18.89,7.82-39.46-41.32-39.17-41.32-39.17Z"/>
</svg>