<?xml version="1.0" encoding="UTF-8"?>
<svg id="Cadeaux" xmlns="http://www.w3.org/2000/svg" viewBox="59.13 35.30 88.82 100.45">
  <defs>
    <style>
      .cls-1 {
        fill: none;
        stroke: #fff;
        stroke-miterlimit: 10;
        stroke-width: 2px;
      }
    </style>
  </defs>
  <g>
    <g>
      <path class="cls-1" d="M97.55,130.1v-56.19h-29.61v56.79c0,1.68,1.36,3.05,3.05,3.05h27.08c-.28,0-.51-1.63-.51-3.65Z"/>
      <path class="cls-1" d="M109.53,73.91v56.19c0,2.01-.23,3.65-.51,3.65h27.08c1.68,0,3.05-1.36,3.05-3.05v-56.79h-29.61Z"/>
      <rect class="cls-1" x="97.55" y="62.12" width="11.98" height="11.79"/>
      <path class="cls-1" d="M97.55,130.1c0,2.01.23,3.65.51,3.65h10.95c.28,0,.51-1.63.51-3.65v-56.19"/>
    </g>
    <path class="cls-1" d="M138.56,73.91h4.39c1.66,0,3-1.02,3-2.28v-7.23c0-1.26-1.34-2.28-3-2.28h-78.82c-1.66,0-3,1.02-3,2.28v7.23c0,1.26,1.34,2.28,3,2.28h4.39"/>
  </g>
  <path class="cls-1" d="M102.91,57.81c1.94-5.51,7.51-18.13,17.12-15.58.89.24,1.19,1.6.7,3.05-1.95,5.77-7.58,19.07-17.22,15.61-.85-.3-1.11-1.66-.61-3.08Z"/>
  <path class="cls-1" d="M101.75,60.93c-2.93,1.22-10.21,2.02-14.12-17.12-.36-1.78-.03-3.46.73-3.82,3.03-1.42,10.58-2.69,14.18,17.26.32,1.76-.03,3.36-.79,3.67Z"/>
</svg>